<mxfile host="Electron" agent="Mozilla/5.0 (Windows NT 10.0; Win64; x64) AppleWebKit/537.36 (KHTML, like Gecko) draw.io/24.7.17 Chrome/128.0.6613.36 Electron/32.0.1 Safari/537.36" version="24.7.17">
  <diagram id="C5RBs43oDa-KdzZeNtuy" name="Page-1">
    <mxGraphModel dx="1050" dy="669" grid="0" gridSize="10" guides="1" tooltips="1" connect="1" arrows="1" fold="1" page="1" pageScale="1" pageWidth="827" pageHeight="1169" background="none" math="0" shadow="0">
      <root>
        <mxCell id="WIyWlLk6GJQsqaUBKTNV-0" />
        <mxCell id="WIyWlLk6GJQsqaUBKTNV-1" parent="WIyWlLk6GJQsqaUBKTNV-0" />
        <mxCell id="JPEbPtuy_tTcqSSdD0Uh-2" value="" style="edgeStyle=orthogonalEdgeStyle;rounded=0;orthogonalLoop=1;jettySize=auto;html=1;" parent="WIyWlLk6GJQsqaUBKTNV-1" source="JPEbPtuy_tTcqSSdD0Uh-0" target="JPEbPtuy_tTcqSSdD0Uh-1" edge="1">
          <mxGeometry relative="1" as="geometry" />
        </mxCell>
        <mxCell id="JPEbPtuy_tTcqSSdD0Uh-0" value="&lt;font style=&quot;font-size: 12px;&quot;&gt;Bắt đầu&lt;/font&gt;" style="ellipse;whiteSpace=wrap;html=1;" parent="WIyWlLk6GJQsqaUBKTNV-1" vertex="1">
          <mxGeometry x="48" y="260" width="100" height="80" as="geometry" />
        </mxCell>
        <mxCell id="JPEbPtuy_tTcqSSdD0Uh-4" value="" style="edgeStyle=orthogonalEdgeStyle;rounded=0;orthogonalLoop=1;jettySize=auto;html=1;" parent="WIyWlLk6GJQsqaUBKTNV-1" source="JPEbPtuy_tTcqSSdD0Uh-1" target="JPEbPtuy_tTcqSSdD0Uh-3" edge="1">
          <mxGeometry relative="1" as="geometry" />
        </mxCell>
        <mxCell id="JPEbPtuy_tTcqSSdD0Uh-1" value="Nhập phân số" style="shape=parallelogram;perimeter=parallelogramPerimeter;whiteSpace=wrap;html=1;fixedSize=1;" parent="WIyWlLk6GJQsqaUBKTNV-1" vertex="1">
          <mxGeometry x="209" y="270" width="120" height="60" as="geometry" />
        </mxCell>
        <mxCell id="JPEbPtuy_tTcqSSdD0Uh-5" style="edgeStyle=orthogonalEdgeStyle;rounded=0;orthogonalLoop=1;jettySize=auto;html=1;exitX=0.5;exitY=0;exitDx=0;exitDy=0;entryX=0.5;entryY=0;entryDx=0;entryDy=0;" parent="WIyWlLk6GJQsqaUBKTNV-1" source="JPEbPtuy_tTcqSSdD0Uh-3" target="JPEbPtuy_tTcqSSdD0Uh-1" edge="1">
          <mxGeometry relative="1" as="geometry" />
        </mxCell>
        <mxCell id="JPEbPtuy_tTcqSSdD0Uh-6" value="Đúng" style="edgeLabel;html=1;align=center;verticalAlign=middle;resizable=0;points=[];" parent="JPEbPtuy_tTcqSSdD0Uh-5" vertex="1" connectable="0">
          <mxGeometry x="-0.0062" y="-8" relative="1" as="geometry">
            <mxPoint x="2" y="-2" as="offset" />
          </mxGeometry>
        </mxCell>
        <mxCell id="JPEbPtuy_tTcqSSdD0Uh-10" value="" style="edgeStyle=orthogonalEdgeStyle;rounded=0;orthogonalLoop=1;jettySize=auto;html=1;" parent="WIyWlLk6GJQsqaUBKTNV-1" source="JPEbPtuy_tTcqSSdD0Uh-3" target="JPEbPtuy_tTcqSSdD0Uh-9" edge="1">
          <mxGeometry relative="1" as="geometry" />
        </mxCell>
        <mxCell id="JPEbPtuy_tTcqSSdD0Uh-20" value="Sai" style="edgeLabel;html=1;align=center;verticalAlign=middle;resizable=0;points=[];" parent="JPEbPtuy_tTcqSSdD0Uh-10" vertex="1" connectable="0">
          <mxGeometry x="-0.0872" y="4" relative="1" as="geometry">
            <mxPoint y="-6" as="offset" />
          </mxGeometry>
        </mxCell>
        <mxCell id="JPEbPtuy_tTcqSSdD0Uh-3" value="Mẫu = 0" style="rhombus;whiteSpace=wrap;html=1;" parent="WIyWlLk6GJQsqaUBKTNV-1" vertex="1">
          <mxGeometry x="387" y="260" width="80" height="80" as="geometry" />
        </mxCell>
        <mxCell id="JPEbPtuy_tTcqSSdD0Uh-12" value="" style="edgeStyle=orthogonalEdgeStyle;rounded=0;orthogonalLoop=1;jettySize=auto;html=1;" parent="WIyWlLk6GJQsqaUBKTNV-1" source="JPEbPtuy_tTcqSSdD0Uh-9" target="JPEbPtuy_tTcqSSdD0Uh-11" edge="1">
          <mxGeometry relative="1" as="geometry" />
        </mxCell>
        <mxCell id="JPEbPtuy_tTcqSSdD0Uh-15" value="Đúng" style="edgeLabel;html=1;align=center;verticalAlign=middle;resizable=0;points=[];" parent="JPEbPtuy_tTcqSSdD0Uh-12" vertex="1" connectable="0">
          <mxGeometry x="-0.1133" y="4" relative="1" as="geometry">
            <mxPoint x="-1" y="-6" as="offset" />
          </mxGeometry>
        </mxCell>
        <mxCell id="JPEbPtuy_tTcqSSdD0Uh-17" value="" style="edgeStyle=orthogonalEdgeStyle;rounded=0;orthogonalLoop=1;jettySize=auto;html=1;" parent="WIyWlLk6GJQsqaUBKTNV-1" source="JPEbPtuy_tTcqSSdD0Uh-9" target="JPEbPtuy_tTcqSSdD0Uh-16" edge="1">
          <mxGeometry relative="1" as="geometry" />
        </mxCell>
        <mxCell id="JPEbPtuy_tTcqSSdD0Uh-21" value="Sai" style="edgeLabel;html=1;align=center;verticalAlign=middle;resizable=0;points=[];" parent="JPEbPtuy_tTcqSSdD0Uh-17" vertex="1" connectable="0">
          <mxGeometry x="-0.2222" y="-2" relative="1" as="geometry">
            <mxPoint x="-10" y="5" as="offset" />
          </mxGeometry>
        </mxCell>
        <mxCell id="JPEbPtuy_tTcqSSdD0Uh-9" value="Mẫu &amp;lt; 0" style="rhombus;whiteSpace=wrap;html=1;" parent="WIyWlLk6GJQsqaUBKTNV-1" vertex="1">
          <mxGeometry x="522" y="260" width="80" height="80" as="geometry" />
        </mxCell>
        <mxCell id="JPEbPtuy_tTcqSSdD0Uh-18" style="edgeStyle=orthogonalEdgeStyle;rounded=0;orthogonalLoop=1;jettySize=auto;html=1;exitX=0.5;exitY=1;exitDx=0;exitDy=0;entryX=1;entryY=0.5;entryDx=0;entryDy=0;" parent="WIyWlLk6GJQsqaUBKTNV-1" source="JPEbPtuy_tTcqSSdD0Uh-11" target="JPEbPtuy_tTcqSSdD0Uh-16" edge="1">
          <mxGeometry relative="1" as="geometry" />
        </mxCell>
        <mxCell id="JPEbPtuy_tTcqSSdD0Uh-11" value="Đảo ngược dấu của tử và mẫu" style="whiteSpace=wrap;html=1;" parent="WIyWlLk6GJQsqaUBKTNV-1" vertex="1">
          <mxGeometry x="671" y="270" width="116" height="60" as="geometry" />
        </mxCell>
        <mxCell id="JPEbPtuy_tTcqSSdD0Uh-23" value="" style="edgeStyle=orthogonalEdgeStyle;rounded=0;orthogonalLoop=1;jettySize=auto;html=1;" parent="WIyWlLk6GJQsqaUBKTNV-1" source="JPEbPtuy_tTcqSSdD0Uh-16" target="JPEbPtuy_tTcqSSdD0Uh-22" edge="1">
          <mxGeometry relative="1" as="geometry" />
        </mxCell>
        <mxCell id="JPEbPtuy_tTcqSSdD0Uh-16" value="g = gcd(tử, mẫu);&lt;div&gt;tử /= g;&lt;/div&gt;&lt;div&gt;mẫu /= g&lt;/div&gt;" style="whiteSpace=wrap;html=1;" parent="WIyWlLk6GJQsqaUBKTNV-1" vertex="1">
          <mxGeometry x="505" y="406.5" width="114" height="71" as="geometry" />
        </mxCell>
        <mxCell id="JPEbPtuy_tTcqSSdD0Uh-25" value="" style="edgeStyle=orthogonalEdgeStyle;rounded=0;orthogonalLoop=1;jettySize=auto;html=1;" parent="WIyWlLk6GJQsqaUBKTNV-1" source="JPEbPtuy_tTcqSSdD0Uh-22" target="JPEbPtuy_tTcqSSdD0Uh-24" edge="1">
          <mxGeometry relative="1" as="geometry" />
        </mxCell>
        <mxCell id="JPEbPtuy_tTcqSSdD0Uh-22" value="In ra phân số" style="whiteSpace=wrap;html=1;" parent="WIyWlLk6GJQsqaUBKTNV-1" vertex="1">
          <mxGeometry x="209" y="412" width="120" height="60" as="geometry" />
        </mxCell>
        <mxCell id="JPEbPtuy_tTcqSSdD0Uh-24" value="Kết thúc" style="ellipse;whiteSpace=wrap;html=1;" parent="WIyWlLk6GJQsqaUBKTNV-1" vertex="1">
          <mxGeometry x="48" y="402" width="100" height="80" as="geometry" />
        </mxCell>
      </root>
    </mxGraphModel>
  </diagram>
</mxfile>
